<?xml version="1.0" encoding="UTF-8"?>
<svg id="Camada_2" data-name="Camada 2" xmlns="http://www.w3.org/2000/svg" viewBox="0 0 1703.51 148.23">
  <g id="Camada_1-2" data-name="Camada 1">
    <g>
      <g>
        <g>
          <g>
            <path d="m164.47,14.31l-57.14,92.04L50.2,14.31H0v119.62h12.56V31.28l63.71,102.64h27.41c20.8-34.62,42.44-68.35,63.71-102.64v102.64h42.33V14.31h-45.25Z" fill="#FFFFFF"/>
            <path d="m367.54,14.31h-109.59c-16.34,0-29.66,11.67-29.66,25.99v67.64c0,14.32,13.32,25.99,29.66,25.99h109.59c16.34,0,29.66-11.68,29.66-25.99V40.3c0-14.31-13.32-25.99-29.66-25.99Zm-12.67,90.47c0,10.94-10.2,19.78-22.57,19.78h-39.11c-12.37,0-22.57-8.84-22.57-19.78v-61.33c0-10.94,10.2-19.78,22.57-19.78h39.11c12.37,0,22.57,8.84,22.57,19.78v61.33Z" fill="#FFFFFF"/>
            <path d="m554.98,14.31h-139.25v119.62h139.25c16.34,0,29.66-11.67,29.66-25.99V40.3c0-14.32-13.33-25.99-29.66-25.99Zm-12.67,90.47c0,10.82-10.07,19.78-22.59,19.78h-61.67V23.68h61.67c12.51,0,22.59,8.96,22.59,19.78v61.33Z" fill="#FFFFFF"/>
            <path d="m949.43,14.31v9.37h77.44v110.25h42.33V23.68h77.45v-9.37h-197.22Z" fill="#FFFFFF" />
            <path d="m1156.35,14.31v119.62h42.34V14.31h-42.34Z" fill="#FFFFFF" />
            <path d="m1398.52,99.96l-60.95-85.65h-47.74l-1.83,2.54-29.35,40.86-6.92,9.63-5.61,7.8-37.66,52.42c5.56,2.96,14.13,6.47,24.96,7.18,5.64.37,18.59,1.22,30.61-6.57,2.53-1.64,4.44-3.29,5.7-4.48l40.49-35.99,9.42-8.36c3.96-3.52,10.1-2.84,13.2,1.46l38.28,53.12h51.57l-24.18-33.96Zm-129.07,9.72s-4.72,3.59-11.95,6.32c-4.23,1.6-6.34,1.76-8.28,1.49-1.05-.15-5.25-.81-8.11-4.57-2.16-2.84-2.38-5.91-2.37-7.26.02-3.85,1.94-6.74,2.7-7.86,3.76-5.51,23.9-33.6,51.88-71.87,9.22,12.79,18.44,25.59,27.65,38.38-25.51,23.58-44.95,40.33-51.53,45.35Z" fill="#FFFFFF" />
            <polygon points="645.51 23.68 645.51 69.25 769.51 69.25 769.51 78.46 645.51 78.46 645.51 124.55 769.51 124.55 769.51 133.92 603.18 133.92 603.18 14.31 769.51 14.31 769.51 23.68 645.51 23.68" fill="#FFFFFF" />
          </g>
          <path d="m919.56,69.43h-49.71V23.68h70.31v-9.37h-70.31V0h-9.31v14.31h-49.71c-40.37,0-40.37,64.49,0,64.49h49.71v45.74h-.02c-24.61,0-49.22.01-73.83.01v9.37h73.85v14.31h9.31v-14.31h49.71c40.38,0,40.37-64.49,0-64.49Zm-59.02,0h-14.37c-30.54,0-30.54-45.75,0-45.75h14.37v45.75Zm23.69,55.11h-14.37v-45.74h14.37c30.54,0,30.53,45.74,0,45.74Z" fill="#FFFFFF" />
        </g>
        <path d="m1401.48,14.31c3.66,0,6.75,1.21,9.27,3.64,2.52,2.46,3.79,5.47,3.79,9.03s-1.26,6.51-3.79,8.93c-2.49,2.46-5.58,3.69-9.27,3.69s-6.78-1.23-9.27-3.69c-2.52-2.43-3.79-5.41-3.79-8.93s1.26-6.57,3.79-9.03c2.52-2.43,5.62-3.64,9.27-3.64Zm0,22.34c2.78,0,5.13-.92,7.04-2.77,1.88-1.85,2.82-4.14,2.82-6.9s-.94-5.1-2.82-6.94c-1.91-1.85-4.26-2.77-7.04-2.77s-5.13.92-7.04,2.77c-1.88,1.85-2.82,4.16-2.82,6.94s.95,5.05,2.86,6.9c1.88,1.85,4.21,2.77,6.99,2.77Zm5.58-4.9c.03.71.19,1.18.49,1.41h-3.93c-.19-.36-.31-.83-.34-1.41l-.1-1.36c-.03-.55-.15-.92-.36-1.12-.21-.19-.57-.29-1.09-.29h-1.6v4.18h-3.79v-12.53h6.17c1.49,0,2.65.33,3.47,1,.83.66,1.24,1.59,1.24,2.79s-.57,2.17-1.7,2.82c.91.49,1.39,1.44,1.46,2.86l.1,1.65Zm-6.94-5.63h1.85c.87,0,1.31-.4,1.31-1.21s-.44-1.21-1.31-1.21h-1.85v2.43Z" fill="#FFFFFF" />
      </g>
    </g>
  </g>
</svg>