<?xml version="1.0" encoding="UTF-8"?>
<svg version="1.1" xmlns="http://www.w3.org/2000/svg" width="256" height="256">
<path d="M0 0 C1.36294189 0.64461182 1.36294189 0.64461182 2.75341797 1.30224609 C37.05211714 17.63690667 70.20212954 37.94965649 98 64 C98.51884766 64.48484863 99.03769531 64.96969727 99.57226562 65.46923828 C120.96341491 85.62241565 120.96341491 85.62241565 121.59765625 99.859375 C121.46566689 107.73437049 118.35096634 113.64429455 114.54858398 120.30371094 C113.43854976 122.24816114 112.36799512 124.21041321 111.30273438 126.1796875 C104.00704402 139.49809763 96.63829589 150.31491002 81.4375 154.9375 C72.48561354 157.32944406 63.46689056 155.84415949 54.5625 154 C52.94275269 153.66669678 52.94275269 153.66669678 51.2902832 153.32666016 C23.9007741 147.47142068 -3.34580904 138.3048573 -28.06445312 125.02880859 C-30.20107261 123.89312311 -32.3563214 122.7989415 -34.515625 121.70703125 C-63.76389082 106.80821741 -90.73976008 87.19253079 -114.43994141 64.48828125 C-116.03420578 62.96736801 -117.64764802 61.46859716 -119.26171875 59.96875 C-128.35039847 51.37709667 -134.93416138 42.72169069 -135.34472656 29.8605957 C-135.44919016 21.71496248 -134.9552674 15.2621075 -131.03271484 7.94628906 C-129.70997057 5.4534008 -128.46310661 2.92555634 -127.20703125 0.3984375 C-126.16172794 -1.67332745 -125.11351122 -3.74362483 -124.0625 -5.8125 C-123.56073242 -6.80403076 -123.05896484 -7.79556152 -122.54199219 -8.81713867 C-118.15136395 -17.23772623 -114.30257273 -23.95552165 -105 -27 C-71.21705844 -35.04895587 -29.42944106 -14.01642333 0 0 Z M-93 12 C-89.55093413 16.74246557 -85.46486056 20.26025965 -81 24 C-80.50612793 24.42748535 -80.01225586 24.8549707 -79.50341797 25.29541016 C-54.52710147 46.89473142 -25.33366513 63.16037731 4 78 C4.85787109 78.43699219 5.71574219 78.87398438 6.59960938 79.32421875 C32.44800422 92.39928229 60.94799241 104.12454532 90 107 C89.24332031 106.24460937 88.48664063 105.48921875 87.70703125 104.7109375 C86.21980918 103.22156937 84.7350409 101.72968218 83.26171875 100.2265625 C79.76810527 96.6722659 76.17136083 93.30150262 72.390625 90.0546875 C70.59628661 88.5124947 68.81757791 86.95208625 67.046875 85.3828125 C42.68221759 63.91689101 15.12281115 47.14351801 -14.625 34.1875 C-15.36145752 33.86313965 -16.09791504 33.5387793 -16.85668945 33.20458984 C-32.62149319 26.54904367 -49.16893568 21.92736331 -65.73608398 17.7722168 C-68.62284416 17.0473475 -71.5058221 16.30861267 -74.38867188 15.56835938 C-76.23938117 15.09816191 -78.09028519 14.62873005 -79.94140625 14.16015625 C-80.79545547 13.94150406 -81.6495047 13.72285187 -82.5294342 13.49757385 C-83.71864723 13.20112221 -83.71864723 13.20112221 -84.93188477 12.89868164 C-85.6235524 12.72438126 -86.31522003 12.55008087 -87.02784729 12.37049866 C-89.32076262 11.8769099 -89.32076262 11.8769099 -93 12 Z " fill="#F7B044" transform="translate(135,64)"/>
<path d="M0 0 C1 3 1 3 0.8125 6.0625 C1.6313017 23.25733579 18.14569976 37.13955968 30 48 C34.48152186 51.91693024 39.20830071 55.47511478 44 59 C45.37893525 60.03511762 46.7578402 61.0702756 48.13671875 62.10546875 C81.57072419 86.9592644 120.54733918 108.31667603 160 122 C160.73621582 122.2568457 161.47243164 122.51369141 162.23095703 122.77832031 C167.77530763 124.68400725 173.36050285 126.39905389 179 128 C179.85577637 128.24556641 180.71155273 128.49113281 181.59326172 128.74414062 C197.09900559 133.07079399 216.6827491 137.38194841 232 130.5 C234.32861401 129.20385847 234.32861401 129.20385847 236 128 C233.95583708 133.27865717 231.41462339 138.22885256 228.8125 143.25 C228.35552734 144.15363281 227.89855469 145.05726563 227.42773438 145.98828125 C221.41169492 157.58647104 214.66832002 166.21088156 202.19921875 171.09765625 C192.12747268 174.16049275 182.7317879 173.10612829 172.5625 171 C170.94275269 170.66669678 170.94275269 170.66669678 169.2902832 170.32666016 C141.9007741 164.47142068 114.65419096 155.3048573 89.93554688 142.02880859 C87.79892739 140.89312311 85.6436786 139.7989415 83.484375 138.70703125 C54.23610918 123.80821741 27.26023992 104.19253079 3.56005859 81.48828125 C1.96579422 79.96736801 0.35235198 78.46859716 -1.26171875 76.96875 C-10.35039847 68.37709667 -16.93416138 59.72169069 -17.34472656 46.8605957 C-17.46167779 37.7412295 -16.34364459 31.10853709 -12 23 C-10.99665121 21.05183399 -9.99558032 19.10249405 -8.99609375 17.15234375 C-6.03920699 11.41247884 -3.03320671 5.69984963 0 0 Z " fill="#F7B749" transform="translate(17,47)"/>
<path d="M0 0 C1.36294189 0.64461182 1.36294189 0.64461182 2.75341797 1.30224609 C37.05211714 17.63690667 70.20212954 37.94965649 98 64 C98.51884766 64.48484863 99.03769531 64.96969727 99.57226562 65.46923828 C120.24650648 84.94699692 120.24650648 84.94699692 121.265625 97.19140625 C121.26046875 98.30386719 121.2553125 99.41632813 121.25 100.5625 C121.25773437 102.23505859 121.25773437 102.23505859 121.265625 103.94140625 C120.90618694 108.0802298 120.17477993 109.98773903 117.0234375 112.703125 C103.0059027 120.89035772 84.61126006 118.12195656 69.49584961 114.3996582 C48.53839454 108.81510296 28.6492692 101.11628569 9 92 C7.1928502 91.17807343 5.38556328 90.35644826 3.578125 89.53515625 C-32.04245695 73.15566405 -66.29240699 51.81099528 -95 25 C-95.48114258 24.55817383 -95.96228516 24.11634766 -96.45800781 23.66113281 C-106.16570902 14.69009318 -117.05904081 3.35055113 -118.3125 -10.4375 C-117.85735514 -15.62615142 -116.47843596 -19.38716077 -112.9375 -23.25 C-82.04317827 -41.65512784 -28.09285427 -13.37984426 0 0 Z M-107 -15 C-108.72883435 -10.2296978 -107.29564376 -7.0954515 -105.375 -2.640625 C-102.93670131 2.0420168 -99.81236045 7.65678307 -94.90625 10 C-92.44952397 11.28877431 -92.20480292 12.5330226 -91 15 C-65.04619346 42.32219704 -29.24473193 61.18180575 4 78 C4.85787109 78.43699219 5.71574219 78.87398438 6.59960938 79.32421875 C53.8827637 103.73217621 53.8827637 103.73217621 105.19140625 107.35546875 C108.33603553 106.06625227 108.33603553 106.06625227 111 104 C111.96809996 96.25520029 108.48238997 91.30828017 103.9453125 85.26171875 C96.23000299 75.61090773 87.69469804 67.62229091 78 60 C77.37947754 59.50838379 76.75895508 59.01676758 76.11962891 58.51025391 C65.79504395 50.35662086 55.19036949 42.9133968 44 36 C43.19626953 35.50081055 42.39253906 35.00162109 41.56445312 34.48730469 C31.24653014 28.10364015 20.84321403 22.17565173 9.90478516 16.92675781 C8.00992393 16.00482841 6.1344648 15.05191626 4.26171875 14.0859375 C-19.96426176 1.62383378 -45.40563788 -8.87677493 -72 -15 C-72.82242188 -15.20753906 -73.64484375 -15.41507813 -74.4921875 -15.62890625 C-80.79399748 -17.03258044 -87.00722176 -17.20690932 -93.4375 -17.25 C-94.75331055 -17.26389771 -94.75331055 -17.26389771 -96.09570312 -17.27807617 C-97.34577148 -17.27191284 -97.34577148 -17.27191284 -98.62109375 -17.265625 C-99.3680249 -17.26336914 -100.11495605 -17.26111328 -100.88452148 -17.25878906 C-103.32619794 -16.96009581 -104.92675968 -16.31558436 -107 -15 Z " fill="#F8DF49" transform="translate(135,64)"/>
<path d="M0 0 C3.82185695 3.71724408 7.31207548 7.6153898 10.75 11.6875 C18.44969245 22.03871397 18.44969245 22.03871397 28 30 C28 30.66 28 31.32 28 32 C28.58652344 32.25652344 29.17304688 32.51304688 29.77734375 32.77734375 C32.20312929 34.11173896 33.67528701 35.54485328 35.5625 37.5625 C40.37295559 42.47867989 45.59523589 46.75864221 51 51 C51.63115723 51.49693359 52.26231445 51.99386719 52.91259766 52.50585938 C82.75796757 75.91455171 129.62632101 110 169 110 C173.71203788 101.17154701 177.40392028 92.70708068 180 83 C187.98205906 84.7122137 195.85052424 86.77036746 203.73632812 88.87695312 C218.43145683 92.76142683 237.63277422 96.05801488 251.4375 88.09375 C251.953125 87.7328125 252.46875 87.371875 253 87 C250.95583708 92.27865717 248.41462339 97.22885256 245.8125 102.25 C245.35552734 103.15363281 244.89855469 104.05726563 244.42773438 104.98828125 C238.41169492 116.58647104 231.66832002 125.21088156 219.19921875 130.09765625 C209.12747268 133.16049275 199.7317879 132.10612829 189.5625 130 C187.94275269 129.66669678 187.94275269 129.66669678 186.2902832 129.32666016 C158.9007741 123.47142068 131.65419096 114.3048573 106.93554688 101.02880859 C104.79892739 99.89312311 102.6436786 98.7989415 100.484375 97.70703125 C71.23610918 82.80821741 44.26023992 63.19253079 20.56005859 40.48828125 C18.96579422 38.96736801 17.35235198 37.46859716 15.73828125 35.96875 C7.95426637 28.61041419 0.26672123 20.2363516 -0.09765625 8.984375 C-0.08605469 7.91703125 -0.07445312 6.8496875 -0.0625 5.75 C-0.04896484 4.13351563 -0.04896484 4.13351563 -0.03515625 2.484375 C-0.02355469 1.66453125 -0.01195312 0.8446875 0 0 Z " fill="#F7A83E" transform="translate(0,88)"/>
<path d="M0 0 C1.33828857 0.17438599 1.33828857 0.17438599 2.70361328 0.35229492 C6.60109008 0.97904458 10.44879723 1.77009308 14.30859375 2.59375 C29.82159779 5.74833986 45.64296163 7.12242877 61.37109375 8.78125 C54.33311629 16.02840459 44.95668789 19.8074474 34.87890625 19.9609375 C28.84480749 19.91288124 23.13675168 18.82712212 17.24609375 17.59375 C16.15820557 17.37178955 15.07031738 17.1498291 13.94946289 16.92114258 C5.22726093 15.08587414 -3.2208292 12.72595657 -11.62890625 9.78125 C-6.43927191 -0.85286679 -6.43927191 -0.85286679 0 0 Z " fill="#F69C34" transform="translate(171.62890625,200.21875)"/>
</svg>
