<?xml version="1.0" encoding="UTF-8"?>
<svg version="1.1" xmlns="http://www.w3.org/2000/svg" width="512" height="512">
<path d="M0 0 C11.55 0 23.1 0 35 0 C35 8.58 35 17.16 35 26 C37.97 26.99 40.94 27.98 44 29 C55.82105999 35.94509765 64.17928572 47.5306456 68.05566406 60.54394531 C69.25615571 65.4885491 69.323731 70.31839859 69.3359375 75.38671875 C69.3459227 76.85501884 69.3459227 76.85501884 69.35610962 78.35298157 C69.36618992 80.41621028 69.37092808 82.4794713 69.37060547 84.54272461 C69.37496326 87.66120653 69.41129066 90.7782536 69.44921875 93.89648438 C69.55001801 111.66977537 66.94655163 125.72557085 54.4375 139.1875 C48.93275645 144.5073514 42.87157986 147.74730859 36 151 C36.83402344 151.4846875 37.66804688 151.969375 38.52734375 152.46875 C53.57481132 161.43173183 63.97979463 171.08543128 68.5244751 188.58792114 C70.00712463 196.10859477 69.68966804 203.92222447 69.59692383 211.55297852 C69.56243822 214.69312585 69.57636885 217.83047399 69.59570312 220.97070312 C69.58619572 232.27142965 69.13073057 241.73853886 64 252 C64.71542969 251.72285156 65.43085937 251.44570313 66.16796875 251.16015625 C79.84372177 246.1887635 93.97463775 245.13525904 107.50772095 251.2494812 C117.01189742 255.84325752 123.98621003 261.86631951 131.26757812 269.44433594 C133.13734027 271.38782687 135.03787577 273.29666394 136.9453125 275.203125 C145.84174632 284.20132657 152.31837255 292.53333156 155.9453125 304.84765625 C156.79302285 307.19666291 156.79302285 307.19666291 159.1171875 307.80859375 C160.04917969 307.90333984 160.04917969 307.90333984 161 308 C161.10054687 307.28585937 161.20109375 306.57171875 161.3046875 305.8359375 C163.80071001 295.65553107 172.23079851 287.1451113 180.89819336 281.81713867 C193.55642485 274.26779635 205.75674079 273.51044078 220.19042969 273.60888672 C222.99463545 273.62496923 225.79740038 273.60896972 228.6015625 273.58984375 C246.76253387 273.56750553 261.08597925 276.66447566 274.69921875 289.49609375 C279.61625438 294.847231 283.93540881 300.69243581 285 308 C286.9639386 307.88292784 286.9639386 307.88292784 289 307 C290.15475627 304.79631643 290.15475627 304.79631643 290.875 302.0625 C294.41684327 290.11307733 302.36905053 281.88534221 310.96386719 273.29492188 C312.8580613 271.3920166 314.71788111 269.45946911 316.578125 267.5234375 C327.81035976 256.08223693 340.43920045 247.59586003 357 247 C365.96567307 246.94650553 373.66504776 248.77114463 382 252 C381.58427734 250.98679687 381.58427734 250.98679687 381.16015625 249.953125 C380.79792969 249.06109375 380.43570312 248.1690625 380.0625 247.25 C379.70285156 246.36828125 379.34320313 245.4865625 378.97265625 244.578125 C377.53112696 240.75720399 376.87392853 237.47705887 376.83886719 233.39013672 C376.82925964 232.48174042 376.8196521 231.57334412 376.80975342 230.63742065 C376.8033786 229.17334274 376.8033786 229.17334274 376.796875 227.6796875 C376.79117493 226.66584991 376.78547485 225.65201233 376.77960205 224.60745239 C376.77015954 222.46064291 376.76362105 220.31381898 376.75976562 218.16699219 C376.75009772 214.90793982 376.71908235 211.64952843 376.6875 208.390625 C376.68096562 206.29948289 376.67571686 204.20833629 376.671875 202.1171875 C376.6595282 201.15328094 376.6471814 200.18937439 376.63446045 199.19625854 C376.67923124 185.36253522 382.03092676 173.35736719 391.4609375 163.328125 C395.58073894 159.55058398 400.16368643 156.76256093 405 154 C406.66808803 153.00237277 408.33518559 152.00308063 410 151 C408.78376953 150.43345703 408.78376953 150.43345703 407.54296875 149.85546875 C393.68286476 142.96575466 384.61150767 133.47867138 379 119 C377.14174148 112.7631158 376.67969164 107.10273198 376.6640625 100.61328125 C376.6574057 99.63441452 376.6507489 98.65554779 376.64389038 97.64701843 C376.63381008 95.58378972 376.62907192 93.5205287 376.62939453 91.45727539 C376.62503674 88.33879347 376.58870934 85.2217464 376.55078125 82.10351562 C376.45068729 64.62510033 378.89155496 50.58645149 391.25 37.25 C396.95846035 31.90316157 403.31278646 27.53744271 411 26 C411 17.42 411 8.84 411 0 C422.55 0 434.1 0 446 0 C446 8.58 446 17.16 446 26 C447.98 26.66 449.96 27.32 452 28 C464.79755847 35.49656052 473.59111603 45.81615811 478.16870117 59.99243164 C480.14252074 68.10234476 479.62511147 76.78443301 479.57641602 85.07128906 C479.56255873 88.3610578 479.59669237 91.64797053 479.63476562 94.9375 C479.6991191 111.98673555 477.3978853 125.57001438 465.49462891 138.52783203 C460.18110829 143.76150229 453.53544126 149.05284657 446 150 C448.16411803 152.37442417 450.18889175 153.7168798 453.0625 155.125 C462.69073505 160.38530403 470.23313912 168.0986845 475 178 C475.3515918 178.71526855 475.70318359 179.43053711 476.06542969 180.16748047 C480.18127272 190.12050355 479.60315978 200.58376906 479.52148438 211.18115234 C479.50004786 214.49260707 479.5213537 217.80189262 479.546875 221.11328125 C479.5711872 238.73780003 477.12076895 252.08900284 464.9375 265.6875 C453.94092349 275.89684955 439.95797535 280.61624536 425.078125 280.23828125 C419.66679413 279.81938381 414.338108 278.96430338 409 278 C407.7273865 281.81784049 408.49117941 283.79707091 409.4375 287.6875 C412.2406143 300.33380828 411.0657142 312.87248751 404.67578125 324.46484375 C392.61674284 342.70800441 373.47394281 363.36670588 351.875 369.25 C337.60849184 372.01850071 323.2878804 369.79136896 311 362 C305.66093041 357.8794568 301.27123708 353.54743522 297.4375 348 C295.55561865 345.41128762 294.63750263 344.20600969 291.5703125 343.21484375 C289.33717872 342.96787724 287.24086019 342.87296711 285 343 C284.835 343.928125 284.67 344.85625 284.5 345.8125 C281.55049249 356.05269156 272.69265294 364.6702066 263.734375 369.91015625 C251.1630425 376.6480901 239.86916597 377.35032808 225.81494141 377.31567383 C223.1379312 377.31251526 220.4620304 377.33602825 217.78515625 377.36132812 C199.9651685 377.42838202 184.60592267 374.22022225 171.265625 361.50390625 C166.39129017 356.11692586 162.06475392 350.30868125 161 343 C157.80483822 342.81886838 155.05516218 343.00768333 152 344 C149.20159084 346.67250936 147.19521049 349.82799796 145 353 C136.98397642 362.50826664 126.18802857 367.99527332 114 370 C104.91988927 370.54522605 96.57780707 370.26233778 88 367 C86.60587891 366.48373047 86.60587891 366.48373047 85.18359375 365.95703125 C76.13172365 362.03977721 69.65522109 355.60788148 62.76464844 348.75 C61.1565675 347.15526782 59.52667224 345.5889268 57.8828125 344.03125 C44.54497811 331.17372543 35.20172201 317.37299571 34.6875 298.3125 C34.93204046 291.78326979 36.36760009 285.30900505 38 279 C34.77865763 277.95306373 32.75916823 278.1064121 29.5 278.9375 C14.72020081 282.10150393 0.77194065 278.89820957 -12 271 C-19.32392257 265.62493236 -25.04680439 259.21123964 -29 251 C-29.3515918 250.28473145 -29.70318359 249.56946289 -30.06542969 248.83251953 C-34.18127272 238.87949645 -33.60315978 228.41623094 -33.52148438 217.81884766 C-33.50004786 214.50739293 -33.5213537 211.19810738 -33.546875 207.88671875 C-33.5712106 190.24523835 -31.17495552 176.61740499 -18.6875 163.1875 C-14.06697292 158.83876863 -8.49384376 155.62802144 -2.76171875 152.95703125 C-0.82195814 152.12097276 -0.82195814 152.12097276 0 150 C-1.02222656 149.76152344 -2.04445313 149.52304688 -3.09765625 149.27734375 C-7.0902471 148.12785506 -10.19643027 146.11947533 -13.4375 143.5625 C-13.99953125 143.1200293 -14.5615625 142.67755859 -15.140625 142.22167969 C-24.97106879 134.18218457 -31.91201372 123.13656436 -33.28570557 110.33813477 C-33.67073081 104.11583057 -33.66905066 97.89972694 -33.59692383 91.66796875 C-33.56249095 88.37413404 -33.57634735 85.08297401 -33.59570312 81.7890625 C-33.58392662 64.36633666 -31.21129364 50.5188035 -18.875 37.3125 C-14.31387358 32.94562939 -6.62325647 26 0 26 C0 17.42 0 8.84 0 0 Z M27 64.4375 C23.03269434 66.50380503 19.46906834 67.16864409 15 67 C12.54084989 66.20113714 10.34826972 65.10506811 8 64 C5.70291681 63.88394923 5.70291681 63.88394923 4 65 C1.31926612 68.77668452 1.67654981 73.05003993 1.6640625 77.4921875 C1.6574057 78.31574738 1.6507489 79.13930725 1.64389038 79.98782349 C1.63377997 81.7276995 1.62907286 83.46761417 1.62939453 85.20751953 C1.62502627 87.85905408 1.58870535 90.50891657 1.55078125 93.16015625 C1.5449116 94.854161 1.5409432 96.54817362 1.5390625 98.2421875 C1.52469147 99.02987518 1.51032043 99.81756287 1.49551392 100.62911987 C1.53978749 106.00694601 2.62242192 108.79747964 6 113 C6.763125 112.505 7.52625 112.01 8.3125 111.5 C13.80434897 109.26602754 19.5345839 108.96037517 25.265625 110.6796875 C27.1875 111.5 27.1875 111.5 30 113 C33.86621055 108.12521278 34.17853583 104.1442198 34.23828125 98.078125 C34.246353 97.29991394 34.25442474 96.52170288 34.26274109 95.71990967 C34.27656475 94.07241024 34.28729459 92.42488237 34.29516602 90.77734375 C34.30667348 89.0995235 34.32710592 87.42173951 34.35668945 85.74414062 C34.39954561 83.31355027 34.41556032 80.88404717 34.42578125 78.453125 C34.44328934 77.71120911 34.46079742 76.96929321 34.47883606 76.20489502 C34.45626657 70.72342255 33.03092335 67.56419634 30 63 C28.72483463 62.90272733 28.72483463 62.90272733 27 64.4375 Z M415 64 C412.15605936 68.78979476 411.55661092 72.78961295 411.6015625 78.25 C411.59869232 79.02633789 411.59582214 79.80267578 411.59286499 80.60253906 C411.5908326 82.23633559 411.59630453 83.87015691 411.60888672 85.50390625 C411.62495317 87.99274538 411.60901096 90.47996087 411.58984375 92.96875 C411.59182633 94.56250355 411.59567031 96.1562561 411.6015625 97.75 C411.59548981 98.48766602 411.58941711 99.22533203 411.5831604 99.98535156 C411.64705191 104.72107989 412.58664492 107.93540198 415 112 C417.96264927 112.1926892 417.96264927 112.1926892 420.34765625 111.01953125 C426.01922654 108.83944311 432.13329309 109.2406616 437.6875 111.5 C438.450625 111.995 439.21375 112.49 440 113 C443.98129912 108.03633445 444.58593117 104.55134592 444.49609375 98.27734375 C444.4982766 97.04269127 444.4982766 97.04269127 444.50050354 95.78309631 C444.49885039 94.050918 444.4873548 92.31872411 444.46655273 90.58666992 C444.43754835 87.94190901 444.44596523 85.29914922 444.45898438 82.65429688 C444.45274754 80.96613614 444.44435702 79.2779817 444.43359375 77.58984375 C444.43652939 76.80326889 444.43946503 76.01669403 444.44248962 75.20628357 C444.36416906 70.63057819 443.76432982 67.68439849 441 64 C438.64174189 64.54421341 436.55534045 65.18613656 434.3125 66.125 C429.46596267 67.40521741 424.45776832 67.23348672 419.9140625 64.953125 C417.90879544 63.77712424 417.90879544 63.77712424 415 64 Z M5 190 C2.12040542 194.83464503 1.54500728 198.91989071 1.56640625 204.43359375 C1.5611644 205.22975601 1.55592255 206.02591827 1.55052185 206.84620667 C1.54412509 208.5228662 1.54540815 210.19957075 1.55395508 211.8762207 C1.56246419 214.42676536 1.53367541 216.97506682 1.50195312 219.52539062 C1.5003407 221.16145767 1.50091943 222.79752864 1.50390625 224.43359375 C1.49267227 225.18797226 1.48143829 225.94235077 1.46986389 226.71958923 C1.54153793 232.2273332 2.89006562 235.44176732 6 240 C7.81277115 241.59284477 7.81277115 241.59284477 9.75 242.4375 C11.35875 243.2109375 11.35875 243.2109375 13 244 C13.23074219 243.46890625 13.46148437 242.9378125 13.69921875 242.390625 C16.1581231 237.06461875 18.60645934 233.69677033 24 231 C25.70363822 230.77377919 27.41328701 230.59111527 29.125 230.4375 C30.03507812 230.35371094 30.94515625 230.26992188 31.8828125 230.18359375 C32.58148438 230.12300781 33.28015625 230.06242187 34 230 C34.07445407 225.26777545 34.1287447 220.53589589 34.16479492 215.80322266 C34.17983176 214.19508928 34.20026672 212.58699656 34.22631836 210.97900391 C34.26292822 208.66037936 34.27977722 206.34229951 34.29296875 204.0234375 C34.30845261 203.31069672 34.32393646 202.59795593 34.33988953 201.86361694 C34.34145539 197.16276662 33.39086584 194.03165613 31 190 C30.443125 190.2165625 29.88625 190.433125 29.3125 190.65625 C20.1882168 193.98538036 14.01081778 193.50420692 5 190 Z M415 190 C412.18623455 194.74478095 411.58959839 198.61785968 411.70703125 204.0234375 C411.71127609 204.76961334 411.71552094 205.51578918 411.71989441 206.28457642 C411.73657618 208.64843098 411.77420661 211.01140676 411.8125 213.375 C411.82756051 214.9856647 411.84124652 216.59634287 411.85351562 218.20703125 C411.88644496 222.13835515 411.93815238 226.06902901 412 230 C412.68271973 230.05333496 413.36543945 230.10666992 414.06884766 230.16162109 C415.415354 230.27884521 415.415354 230.27884521 416.7890625 230.3984375 C417.67803223 230.47239746 418.56700195 230.54635742 419.48291016 230.62255859 C423.19036803 231.17849748 425.23709823 232.50023173 428 235 C429.52890786 237.26804875 430.73587377 239.56204227 432 242 C432.66 242.66 433.32 243.32 434 244 C435.093125 243.29875 436.18625 242.5975 437.3125 241.875 C438.23482422 241.28332031 438.23482422 241.28332031 439.17578125 240.6796875 C442.66235443 237.46935245 444.14642888 233.68600955 444.38818359 229.01757812 C444.40779727 227.52226014 444.41039355 226.02664882 444.3984375 224.53125 C444.40274277 223.3334491 444.40274277 223.3334491 444.40713501 222.1114502 C444.40916783 220.43057543 444.40369289 218.74967658 444.39111328 217.06884766 C444.37504765 214.50759589 444.39098778 211.9479219 444.41015625 209.38671875 C444.40817368 207.74739238 444.40432971 206.10806698 444.3984375 204.46875 C444.40451019 203.70921021 444.41058289 202.94967041 444.4168396 202.16711426 C444.35411782 197.38529652 443.51056197 194.20504587 441 190 C440.443125 190.2165625 439.88625 190.433125 439.3125 190.65625 C430.1882168 193.98538036 424.01081778 193.50420692 415 190 Z M84 283 C83.7525 284.051875 83.505 285.10375 83.25 286.1875 C81.93223806 290.66428029 80.10035014 293.76876026 75.9609375 296.1953125 C73.99458674 297.18891024 72.01178779 298.10354691 70 299 C71.76790036 307.9820744 77.29236271 313.11689897 83.6328125 319.25024414 C85.37972451 320.94207554 87.10110952 322.65701544 88.8203125 324.37695312 C89.92827829 325.47018006 91.03760753 326.56202724 92.1484375 327.65234375 C92.66006439 328.16063217 93.17169128 328.66892059 93.69882202 329.19261169 C97.74558927 333.08145855 100.86465448 334.80587768 106.4375 335.3125 C110.35070453 334.96923644 112.70693787 334.11696851 116 332 C117.19167272 329.01240682 117.19167272 329.01240682 116.875 325.75 C117.01670729 321.49878123 118.19861672 318.81893256 120 315 C120.86162688 313.05840802 120.86162688 313.05840802 121 311 C119.91048079 309.08381273 119.91048079 309.08381273 118.13671875 307.3359375 C117.48751465 306.64081055 116.83831055 305.94568359 116.16943359 305.22949219 C115.45352051 304.49375977 114.73760742 303.75802734 114 303 C113.27248535 302.24106445 112.5449707 301.48212891 111.79541016 300.70019531 C109.4888864 298.31993801 107.15519742 295.96962874 104.8125 293.625 C103.62237305 292.41650391 103.62237305 292.41650391 102.40820312 291.18359375 C101.64056641 290.41402344 100.87292969 289.64445312 100.08203125 288.8515625 C99.39343018 288.15885254 98.7048291 287.46614258 97.99536133 286.75244141 C94.69812449 283.85661784 92.1248251 282.7291725 87.75 282.875 C86.5125 282.91625 85.275 282.9575 84 283 Z M338.20288086 296.42651367 C336.68428634 297.94070434 335.15036164 299.43814254 333.61523438 300.93554688 C332.64225285 301.90266459 331.67021366 302.87073147 330.69921875 303.83984375 C329.82096436 304.70988037 328.94270996 305.57991699 328.0378418 306.47631836 C325.89638242 309.12832095 325.17632643 310.62118508 325 314 C326.34329588 316.09663191 326.34329588 316.09663191 328 318 C328.99240145 320.97088331 329.00685479 323.45807623 328.8125 326.5625 C328.68725533 330.16348659 328.68725533 330.16348659 330.8125 333 C335.06749602 334.94514104 338.33349551 335.31637319 343 335 C347.72050294 333.04599666 351.14458547 330.33461676 354.73046875 326.7734375 C355.24756912 326.26632233 355.76466949 325.75920715 356.29743958 325.23672485 C357.3827854 324.16648704 358.46417194 323.09222057 359.54174805 322.01416016 C361.17807015 320.38439208 362.83685829 318.78014553 364.49804688 317.17578125 C370.15403734 311.60766771 374.36142798 307.01639848 376 299 C375.39671875 298.70867187 374.7934375 298.41734375 374.171875 298.1171875 C369.01188819 295.47061362 365.68010999 293.36021999 363 288 C362.25 285.125 362.25 285.125 362 283 C351.06300818 282.2457247 345.54906177 289.0779387 338.20288086 296.42651367 Z M198 313 C198.57584432 315.38564077 199.22227595 317.66682784 200 320 C200.11880354 321.8096818 200.1751965 323.62396447 200.1875 325.4375 C200.20167969 326.38496094 200.21585938 327.33242188 200.23046875 328.30859375 C199.99321351 331.0792524 199.29633255 332.58666945 198 335 C198 335.99 198 336.98 198 338 C204.92315219 343.00005436 212.40400473 342.21847753 220.58911133 342.24023438 C222.79481984 342.24992234 224.99958868 342.28096133 227.20507812 342.3125 C228.62239035 342.31903292 230.03970918 342.32428226 231.45703125 342.328125 C232.73553955 342.3374707 234.01404785 342.34681641 235.33129883 342.35644531 C240.20402891 341.88301842 243.63752892 340.18123554 248 338 C247.42415568 335.61435923 246.77772405 333.33317216 246 331 C245.88119646 329.1903182 245.8248035 327.37603553 245.8125 325.5625 C245.79832031 324.61503906 245.78414063 323.66757812 245.76953125 322.69140625 C246.00593029 319.93074627 246.66955887 318.38850849 248 316 C248.23901711 313.87092681 248.23901711 313.87092681 247 312 C241.99293906 309.40567408 237.81349623 308.54208893 232.16015625 308.56640625 C231.07147499 308.55854347 231.07147499 308.55854347 229.96080017 308.55052185 C228.43554963 308.54413825 226.91024962 308.54539085 225.38500977 308.55395508 C223.07152309 308.5624668 220.76050929 308.53365486 218.44726562 308.50195312 C210.78863858 308.46752884 204.56291561 308.58685435 198 313 Z " fill="#CCCCCC" transform="translate(33,68)"/>
<path d="M0 0 C3.69597293 3.15697687 7.37019465 6.32970461 11 9.5625 C12.32920638 10.71311819 13.66238331 11.85916986 15 13 C15.57621094 13.50144531 16.15242188 14.00289063 16.74609375 14.51953125 C21.29850948 18.16777203 25.25843371 18.76749647 31 19 C31.15025635 19.57685547 31.3005127 20.15371094 31.45532227 20.74804688 C34.0878839 28.89281109 39.27969323 34.10320533 45.28100586 39.8984375 C46.94671263 41.50890713 48.58667765 43.14258498 50.22460938 44.78125 C51.28244315 45.82434955 52.3416413 46.86606766 53.40234375 47.90625 C53.88895981 48.38952759 54.37557587 48.87280518 54.87693787 49.37072754 C58.84301796 53.17433449 61.98276617 54.81661511 67.4375 55.3125 C71.30739341 54.97303567 73.63855974 53.8761527 77 52 C77.66 52 78.32 52 79 52 C79.53625 52.886875 80.0725 53.77375 80.625 54.6875 C83.26807226 58.76558878 86.55744476 61.07268206 91 63 C94.84045881 63.69835948 98.60304629 63.78948649 102.5 63.8125 C103.51320313 63.83763672 104.52640625 63.86277344 105.5703125 63.88867188 C108.04726637 63.9470906 110.5224717 63.98370047 113 64 C104.03610136 77.8295384 93.9751549 86.62993735 77.68359375 90.55859375 C68.01520373 92.14888206 58.15152392 91.48053553 49 88 C47.60587891 87.48373047 47.60587891 87.48373047 46.18359375 86.95703125 C37.13172365 83.03977721 30.65522109 76.60788148 23.76464844 69.75 C22.1565675 68.15526782 20.52667224 66.5889268 18.8828125 65.03125 C5.54497811 52.17372543 -3.79827799 38.37299571 -4.3125 19.3125 C-4.0534986 12.72646433 -3.22626096 5.81540316 0 0 Z " fill="#CCCCCC" transform="translate(72,347)"/>
<path d="M0 0 C4.44800062 4.44800062 5.10501957 13.81744825 5.375 20 C4.14924718 44.8348181 -12.71453521 61.11934506 -30 77 C-43.2034204 88.41525298 -56.70730226 92.16375674 -74 91 C-89.29322588 88.49995797 -100.99277599 79.99882841 -110.0390625 67.62890625 C-111 66 -111 66 -111 64 C-110.15405273 63.98598145 -110.15405273 63.98598145 -109.29101562 63.97167969 C-106.69318008 63.91742514 -104.09704081 63.83389317 -101.5 63.75 C-100.613125 63.73582031 -99.72625 63.72164063 -98.8125 63.70703125 C-92.77334931 63.48500365 -88.04510344 62.44354368 -83 59 C-80.88109061 56.71809758 -79.38326731 54.76653461 -78 52 C-77.236875 52.309375 -76.47375 52.61875 -75.6875 52.9375 C-70.23491283 55.093174 -65.71825608 56.13394706 -60.11181641 53.79516602 C-55.00003114 50.84624423 -51.08288256 46.64074598 -46.94042969 42.49633789 C-45.38749271 40.9499401 -43.81219749 39.42914718 -42.234375 37.90820312 C-36.97568847 32.73198996 -32.87874052 28.2246793 -30.97558594 20.87158203 C-30 19 -30 19 -27.52050781 18.21606445 C-25.66058505 18.02021987 -23.79942493 17.83594969 -21.9375 17.66015625 C-16.33971212 16.40214275 -12.91535124 11.95927345 -9 8 C-7.30269477 6.46686864 -5.59496962 4.94516087 -3.875 3.4375 C-3.12992187 2.77621094 -2.38484375 2.11492187 -1.6171875 1.43359375 C-1.08351563 0.96050781 -0.54984375 0.48742187 0 0 Z " fill="#CCCCCC" transform="translate(439,347)"/>
<path d="M0 0 C10.56965499 1.88069402 19.48770745 9.81261045 25.68359375 18.30859375 C34.14572046 31.49769398 34.66615527 43.7997134 34.57641602 59.07128906 C34.56255873 62.3610578 34.59669237 65.64797053 34.63476562 68.9375 C34.69913023 85.98968469 32.39752816 99.5701389 20.49023438 112.52783203 C14.64710745 118.30012157 8.22176611 122.8303644 0 124 C-0.01401855 122.72938721 -0.01401855 122.72938721 -0.02832031 121.43310547 C-0.07252612 118.26805648 -0.13422527 115.10395188 -0.20751953 111.93945312 C-0.23561623 110.57401836 -0.25688677 109.20842436 -0.27099609 107.84277344 C-0.29257982 105.87145962 -0.3413546 103.90050369 -0.390625 101.9296875 C-0.4220459 100.15440674 -0.4220459 100.15440674 -0.45410156 98.34326172 C-1.09934852 94.39155695 -2.67625798 92.21038722 -5 89 C-4.859046 86.60378207 -4.26525455 85.40566505 -2.96411133 83.41577148 C-1.53473825 79.83419473 -1.69486137 76.27289769 -1.69921875 72.47265625 C-1.69493362 71.6467247 -1.6906485 70.82079315 -1.68623352 69.96983337 C-1.68049934 68.22574784 -1.67998324 66.48163839 -1.68432617 64.73754883 C-1.68748485 62.07526676 -1.66402095 59.41409779 -1.63867188 56.75195312 C-1.63639859 55.0546889 -1.63569552 53.35742169 -1.63671875 51.66015625 C-1.627509 50.86730728 -1.61829926 50.07445831 -1.60881042 49.25758362 C-1.64795391 44.56008038 -2.2996835 41.98176031 -5 38 C-4.3125 35.5 -4.3125 35.5 -3 33 C-1.13188604 29.03274088 -0.70572479 25.75895483 -0.5859375 21.38671875 C-0.54726563 20.13955078 -0.50859375 18.89238281 -0.46875 17.60742188 C-0.42234375 15.66706055 -0.42234375 15.66706055 -0.375 13.6875 C-0.33632813 12.37458984 -0.29765625 11.06167969 -0.2578125 9.70898438 C-0.16366883 6.47279563 -0.07803648 3.23661065 0 0 Z " fill="#CCCCCC" transform="translate(478,94)"/>
<path d="M0 0 C12.10324686 3.65695511 21.22992848 10.98289532 27.76171875 21.9609375 C32.54395176 31.1548673 34.3112232 39.1249723 34.3359375 49.38671875 C34.3425943 50.36558548 34.3492511 51.34445221 34.35610962 52.35298157 C34.36618992 54.41621028 34.37092808 56.4794713 34.37060547 58.54272461 C34.37496326 61.66120653 34.41129066 64.7782536 34.44921875 67.89648438 C34.55030964 85.72119814 31.94477353 99.81694843 19.3125 113.25 C14.19235682 118.16844057 7.42470914 124 0 124 C-0.02187378 122.82812134 -0.02187378 122.82812134 -0.04418945 121.63256836 C-0.11900498 118.06706632 -0.21555633 114.50246623 -0.3125 110.9375 C-0.33505859 109.70837891 -0.35761719 108.47925781 -0.38085938 107.21289062 C-0.57251327 100.74892729 -0.87211191 95.7061731 -4 90 C-4.875 87.9375 -4.875 87.9375 -5 86 C-4.5157959 85.14019531 -4.0315918 84.28039062 -3.53271484 83.39453125 C-1.7355154 79.41424118 -1.56633249 76.02948272 -1.6015625 71.75 C-1.59869232 70.97366211 -1.59582214 70.19732422 -1.59286499 69.39746094 C-1.5908326 67.76366441 -1.59630453 66.12984309 -1.60888672 64.49609375 C-1.62495317 62.00725462 -1.60901096 59.52003913 -1.58984375 57.03125 C-1.59182633 55.43749645 -1.59567031 53.8437439 -1.6015625 52.25 C-1.59245346 51.14350098 -1.59245346 51.14350098 -1.5831604 50.01464844 C-1.64769008 45.23161765 -2.74143417 42.16444733 -5 38 C-4.3125 35.5 -4.3125 35.5 -3 33 C-1.36074316 28.73095988 -0.71630968 25.07083881 -0.5859375 20.5078125 C-0.54726562 19.30898437 -0.50859375 18.11015625 -0.46875 16.875 C-0.42234375 15.01875 -0.42234375 15.01875 -0.375 13.125 C-0.31699219 11.23394531 -0.31699219 11.23394531 -0.2578125 9.3046875 C-0.16383011 6.20326863 -0.07816589 3.10185114 0 0 Z " fill="#CCCCCC" transform="translate(68,94)"/>
<path d="M0 0 C0.70125 0.28875 1.4025 0.5775 2.125 0.875 C9.83371382 3.89145324 16.54385761 4.3404633 24.73999023 4.31567383 C26.92807852 4.31251361 29.11481275 4.33601008 31.30273438 4.36132812 C32.71093582 4.36360166 34.11914085 4.36430436 35.52734375 4.36328125 C36.79312256 4.36626221 38.05890137 4.36924316 39.36303711 4.37231445 C43.56808814 3.94184504 46.21852954 2.83686438 50 1 C52.0625 0.0625 52.0625 0.0625 54 0 C57.0625 1.875 57.0625 1.875 60 4 C63.17509982 5.05836661 65.64282383 5.20243789 68.98046875 5.31640625 C70.14384766 5.35830078 71.30722656 5.40019531 72.50585938 5.44335938 C73.72080078 5.48267578 74.93574219 5.52199219 76.1875 5.5625 C77.41404297 5.60568359 78.64058594 5.64886719 79.90429688 5.69335938 C82.93608381 5.7995309 85.96795315 5.90157952 89 6 C86.47940791 16.28605257 79.75625512 25.03372813 71 31 C57.28369784 39.02305234 45.48621059 40.35431531 29.81494141 40.31567383 C27.1379312 40.31251526 24.4620304 40.33602825 21.78515625 40.36132812 C3.9651685 40.42838202 -11.39407733 37.22022225 -24.734375 24.50390625 C-29.71334843 19.00128216 -33.67902042 13.35327389 -35 6 C-34.25427734 5.9906543 -33.50855469 5.98130859 -32.74023438 5.97167969 C-29.3261785 5.9176397 -25.91344345 5.83405696 -22.5 5.75 C-20.74042969 5.72873047 -20.74042969 5.72873047 -18.9453125 5.70703125 C-12.01340399 5.51231472 -5.22743875 5.22743875 0 0 Z " fill="#CCCCCC" transform="translate(229,405)"/>
<path d="M0 0 C1.84441966 1.82408706 3.67534212 3.66008665 5.49707031 5.50683594 C7.35581915 7.38702812 9.23499544 9.24487174 11.1171875 11.1015625 C19.11745292 19.08197104 25.81013133 26.79030725 29.484375 37.703125 C29.96003906 39.08177734 29.96003906 39.08177734 30.4453125 40.48828125 C31.109375 42.640625 31.109375 42.640625 31.109375 43.640625 C30.32288574 43.65520752 29.53639648 43.66979004 28.72607422 43.68481445 C25.14502542 43.75951863 21.56488589 43.85610707 17.984375 43.953125 C16.128125 43.98696289 16.128125 43.98696289 14.234375 44.02148438 C13.03554687 44.05693359 11.83671875 44.09238281 10.6015625 44.12890625 C8.95196533 44.16818237 8.95196533 44.16818237 7.26904297 44.20825195 C3.69116601 44.69785326 1.256355 45.90915075 -1.890625 47.640625 C-2.880625 47.970625 -3.870625 48.300625 -4.890625 48.640625 C-5.45072266 47.75600586 -6.01082031 46.87138672 -6.58789062 45.95996094 C-8.68128098 42.82492858 -11.06780011 40.20504299 -13.734375 37.53125 C-14.65089844 36.61214844 -15.56742188 35.69304687 -16.51171875 34.74609375 C-16.98464355 34.2773584 -17.45756836 33.80862305 -17.94482422 33.32568359 C-19.39399828 31.88727678 -20.83211673 30.43842926 -22.26953125 28.98828125 C-23.64431641 27.61736328 -23.64431641 27.61736328 -25.046875 26.21875 C-25.88025391 25.38762695 -26.71363281 24.55650391 -27.57226562 23.70019531 C-32.13692269 19.64507241 -35.98507306 19.23118019 -41.890625 18.640625 C-41.95378906 18.08375 -42.01695313 17.526875 -42.08203125 16.953125 C-43.18945515 10.05212556 -46.00852483 6.47675436 -50.890625 1.640625 C-51.66792969 0.83882813 -52.44523437 0.03703125 -53.24609375 -0.7890625 C-57.7709258 -5.42531387 -57.7709258 -5.42531387 -62.890625 -9.359375 C-62.560625 -10.349375 -62.230625 -11.339375 -61.890625 -12.359375 C-39.89847868 -22.56373089 -16.82194527 -16.34369554 0 0 Z " fill="#CCCCCC" transform="translate(158.890625,332.359375)"/>
<path d="M0 0 C0 4 0 4 -1.43359375 5.60546875 C-2.42552734 6.38857422 -2.42552734 6.38857422 -3.4375 7.1875 C-6.72057405 9.9029124 -9.83920434 12.69598661 -12.875 15.6875 C-13.61492187 16.41324219 -14.35484375 17.13898438 -15.1171875 17.88671875 C-18.77022445 21.98691167 -19.37507964 25.58402358 -20 31 C-20.6290625 31.06316406 -21.258125 31.12632812 -21.90625 31.19140625 C-22.7621875 31.31386719 -23.618125 31.43632812 -24.5 31.5625 C-25.75296875 31.71912109 -25.75296875 31.71912109 -27.03125 31.87890625 C-31.55320548 33.58653944 -34.54059083 36.69057205 -38 40 C-38.72606445 40.69343506 -39.45212891 41.38687012 -40.20019531 42.10131836 C-42.44550606 44.2770471 -44.66325311 46.47769324 -46.875 48.6875 C-48.01195312 49.80608398 -48.01195312 49.80608398 -49.171875 50.94726562 C-49.89632812 51.66978516 -50.62078125 52.39230469 -51.3671875 53.13671875 C-52.01800293 53.78342529 -52.66881836 54.43013184 -53.33935547 55.09643555 C-54.98242224 56.97985095 -55.99836415 58.72116771 -57 61 C-57.556875 60.71125 -58.11375 60.4225 -58.6875 60.125 C-63.41222938 57.82648301 -67.0943303 56.73665411 -72.39453125 56.5859375 C-73.59658203 56.54726563 -74.79863281 56.50859375 -76.03710938 56.46875 C-77.90592773 56.42234375 -77.90592773 56.42234375 -79.8125 56.375 C-81.07771484 56.33632813 -82.34292969 56.29765625 -83.64648438 56.2578125 C-86.76417851 56.16369343 -89.88186914 56.07805639 -93 56 C-92.54886425 54.42575972 -92.09199989 52.85316058 -91.6328125 51.28125 C-91.37902832 50.40533203 -91.12524414 49.52941406 -90.86376953 48.62695312 C-87.95434859 39.77862941 -82.22268365 33.72125808 -76 27 C-75.16307617 26.09540039 -74.32615234 25.19080078 -73.46386719 24.25878906 C-52.32147708 1.69894305 -31.69203986 -12.27709652 0 0 Z " fill="#CCCCCC" transform="translate(415,320)"/>
<path d="M0 0 C1.88848663 0.002062 1.88848663 0.002062 3.81512451 0.00416565 C6.46201209 0.01318787 9.1056793 0.03339039 11.75195312 0.07397461 C15.13011175 0.12515264 18.50692447 0.13640959 21.88542557 0.13413906 C25.13208205 0.13515354 28.37845981 0.16167282 31.625 0.1875 C33.43451141 0.19250771 33.43451141 0.19250771 35.28057861 0.19761658 C44.38767653 0.35207817 49.88890401 2.18475278 56.546875 8.69140625 C58.62717588 13.04112627 59.12362555 16.912616 58.546875 21.69140625 C55.89369719 27.53497555 52.2268847 31.8514014 46.4296875 34.75 C42.61337737 35.99624762 38.90163691 36.21261225 34.921875 36.37890625 C34.04249268 36.41653076 33.16311035 36.45415527 32.25708008 36.49291992 C23.70079588 36.77719851 15.1453421 36.71723367 6.58746338 36.54824829 C5.02925699 36.51888516 3.47092535 36.49550732 1.91253662 36.47836304 C-8.08025779 36.35385098 -15.50456676 36.00823365 -23.390625 29.12890625 C-27.48399624 24.29128569 -26.88675941 18.72759717 -26.453125 12.69140625 C-24.94340198 6.97602626 -21.32024778 4.82461855 -16.43664551 1.97927856 C-11.07022174 -0.33720245 -5.76358973 -0.10368765 0 0 Z " fill="#cccccc" transform="translate(304.453125,375.30859375)"/>
<path d="M0 0 C1.67247551 -0.01913956 1.67247551 -0.01913956 3.3787384 -0.03866577 C4.57464096 -0.04089142 5.77054352 -0.04311707 7.00268555 -0.04541016 C8.24181198 -0.05206696 9.48093842 -0.05872375 10.75761414 -0.06558228 C13.3776196 -0.07570087 15.9976508 -0.08039954 18.61767578 -0.08007812 C21.29373188 -0.07991555 23.96910373 -0.09380516 26.64501953 -0.12109375 C30.51445328 -0.15782058 34.38309464 -0.16755487 38.25268555 -0.17041016 C39.44251541 -0.18478119 40.63234528 -0.19915222 41.85823059 -0.21395874 C50.40803677 -0.16717175 55.68256272 1.11142087 62.2644043 6.85302734 C66.35026204 11.68176831 65.77665876 17.26208766 65.3269043 23.29052734 C63.74431135 28.63177853 60.88023625 30.60874785 56.2644043 33.31005859 C52.69522214 35.11623747 49.82323331 35.43175842 45.88085938 35.48339844 C44.20815727 35.50749283 44.20815727 35.50749283 42.50166321 35.53207397 C37.39679881 35.57661253 32.29202238 35.61803356 27.18701172 35.640625 C24.4972104 35.65393522 21.80817299 35.68173481 19.11865234 35.72265625 C15.23601517 35.77752608 11.35440867 35.79931715 7.47143555 35.81396484 C6.27533157 35.83663422 5.0792276 35.85930359 3.84687805 35.88265991 C-3.29908852 35.86465094 -8.19390405 35.06949279 -13.6730957 30.29052734 C-17.28388281 26.39467809 -19.48376563 23.29742612 -19.9855957 17.97802734 C-19.51472286 12.42172779 -18.02611858 8.19389281 -13.7980957 4.47802734 C-9.17130009 1.23927042 -5.63794051 0.04397674 0 0 Z " fill="#CCCCCC" transform="translate(168.673095703125,375.70947265625)"/>
<path d="M0 0 C0.91007812 -0.04898437 1.82015625 -0.09796875 2.7578125 -0.1484375 C10.79729411 1.20155064 16.62650489 7.65001608 22.25 13.125 C23.75047967 14.56335842 25.25177651 16.00086489 26.75390625 17.4375 C27.46691895 18.12199219 28.17993164 18.80648438 28.91455078 19.51171875 C31.29168149 21.77102903 33.72769628 23.95622654 36.1875 26.125 C40.01801243 29.54674863 43.71967285 33.0806058 47.375 36.6875 C47.89231689 37.1918457 48.40963379 37.69619141 48.94262695 38.21582031 C53.4960608 42.75786108 55.1749431 45.68983652 55.375 52.125 C55.26962132 57.51907123 54.29983339 60.77375286 50.70703125 64.8125 C46.3822744 68.50099199 42.01371451 69.67042452 36.375 69.4375 C31.03534014 68.54755669 27.82720582 65.93265397 23.875 62.375 C23.36855957 61.92060547 22.86211914 61.46621094 22.34033203 60.99804688 C17.58098455 56.71034644 12.87083498 52.37700449 8.34765625 47.83984375 C5.63989803 45.14064085 2.83277623 42.56579876 0 40 C-16.11174325 25.26241371 -16.11174325 25.26241371 -16.5625 16.9375 C-16.38169691 12.05581663 -14.98595954 9.31848477 -12.125 5.375 C-8.0361187 1.67553596 -5.47504477 0.19826067 0 0 Z " fill="#cccccc" transform="translate(62.125,297.625)"/>
<path d="M0 0 C4.45146251 2.18526342 7.18885145 4.9394521 10 9 C11.54396693 13.63190079 11.97669273 18.26745516 10.3046875 22.9453125 C5.92929368 30.69138009 -1.65570304 37.52986036 -8.5625 43.046875 C-11.25119853 45.20128088 -13.58273013 47.54402566 -16 50 C-18.62472286 52.56408099 -21.27834435 55.09670345 -23.9375 57.625 C-24.62779297 58.29273438 -25.31808594 58.96046875 -26.02929688 59.6484375 C-31.66637883 64.99164315 -36.79493525 68.49597973 -44.6953125 69.12109375 C-49.54660233 68.86619547 -53.01705236 66.7326727 -56.609375 63.59375 C-60.47753047 59.16058306 -60.55890799 54.67101925 -60.56640625 48.96484375 C-59.27582873 42.20933796 -53.98067334 37.69631688 -49.25 33.0625 C-48.66734375 32.48048828 -48.0846875 31.89847656 -47.484375 31.29882812 C-43.80242523 27.65321338 -39.98481443 24.21622391 -36.06640625 20.82788086 C-33.89642016 18.90837639 -31.79954165 16.9295127 -29.7109375 14.921875 C-28.99679687 14.23609375 -28.28265625 13.5503125 -27.546875 12.84375 C-26.08709576 11.4364808 -24.63142018 10.02494352 -23.1796875 8.609375 C-15.93970021 1.68416977 -10.18160909 -1.36564056 0 0 Z " fill="#CCCCCC" transform="translate(455,298)"/>
<path d="M0 0 C6.58440118 6.27085826 8.21418531 11.63250138 8.47241211 20.70458984 C8.48151611 21.9983252 8.49062012 23.29206055 8.5 24.625 C8.52202446 25.98780686 8.54490705 27.35060009 8.56860352 28.71337891 C8.6196044 32.26108398 8.63020259 35.80768237 8.62567139 39.35571289 C8.62500582 41.48140103 8.63593751 43.60677777 8.64892578 45.73242188 C8.66760989 49.78125562 8.62146565 53.82652948 8.5625 57.875 C8.56169434 59.10879395 8.56088867 60.34258789 8.56005859 61.61376953 C8.35189203 69.34155284 7.06018513 74.7877367 1.625 80.5 C-3.15908465 83.42360729 -7.83033657 84.41000201 -13.375 83.5 C-18.19169587 82.16202892 -21.43888043 80.03649659 -24.05859375 75.73828125 C-27.35985156 69.45638005 -27.19981607 63.08845288 -27.25 56.125 C-27.27402815 54.76039801 -27.29910901 53.39581419 -27.32519531 52.03125 C-27.47041316 42.85428856 -27.38043701 33.67412822 -27.125 24.5 C-27.09905762 23.39221191 -27.07311523 22.28442383 -27.04638672 21.14306641 C-26.71953478 12.89229798 -25.3317802 6.63197962 -19.375 0.5 C-13.16041112 -2.51730465 -6.3171698 -2.80763102 0 0 Z " fill="#CCCCCC" transform="translate(470.375,178.5)"/>
<path d="M0 0 C4.55236245 3.36007705 7.47526258 7.37769398 8.625 12.9375 C9.89349915 27.55184236 9.80888158 42.39823328 9.5625 57.0625 C9.56137207 58.29919434 9.56024414 59.53588867 9.55908203 60.81005859 C9.34778442 68.82075606 7.8754134 74.71443377 2.625 80.9375 C-2.11187637 83.91997771 -6.84279479 84.85601499 -12.375 83.9375 C-17.95974318 82.2931034 -21.3928991 79.51192579 -24.33813477 74.53857422 C-26.53141904 69.03651378 -26.21739344 63.09539571 -26.25 57.25 C-26.27200122 55.83714444 -26.29488243 54.42430234 -26.31860352 53.01147461 C-26.36925182 49.3731992 -26.3802435 45.73600079 -26.37567139 42.09741211 C-26.37501428 39.98343794 -26.38578999 37.86978777 -26.39892578 35.75585938 C-26.41743586 31.83631992 -26.37185465 27.91918234 -26.3125 24 C-26.31169434 22.81768799 -26.31088867 21.63537598 -26.31005859 20.41723633 C-26.0926645 12.69528653 -24.48539962 7.79323587 -19.375 1.9375 C-14.28696124 -2.85979369 -6.27187339 -1.97447866 0 0 Z " fill="#CCCCCC" transform="translate(59.375,178.0625)"/>
<path d="M0 0 C11.55 0 23.1 0 35 0 C35.04816191 8.66914323 35.05740685 17.3315653 35 26 C34.99419922 27.26005859 34.98839844 28.52011719 34.98242188 29.81835938 C34.95361033 33.54657358 34.888139 37.27247021 34.8125 41 C34.80677979 42.14887695 34.80105957 43.29775391 34.79516602 44.48144531 C34.59646218 51.99145971 33.19507636 57.69263933 29 64 C25.1195879 67.55704443 20.1463205 68.15413273 15 68 C8.81175525 66.60576808 5.65443842 64.25266557 1.92919922 59.18041992 C-1.04729434 53.87005673 -0.49548574 48.2122177 -0.390625 42.28515625 C-0.38496521 41.07427841 -0.37930542 39.86340057 -0.37347412 38.61582947 C-0.35115882 34.76431042 -0.30096835 30.91373591 -0.25 27.0625 C-0.22992887 24.44467493 -0.21167918 21.82683522 -0.1953125 19.20898438 C-0.15471885 12.80533664 -0.07641164 6.40372034 0 0 Z " fill="#CCCCCC" transform="translate(444,68)"/>
<path d="M0 0 C11.55 0 23.1 0 35 0 C35.06896563 7.4201912 35.12867373 14.83926486 35.16479492 22.25952148 C35.17985705 24.78234633 35.20031077 27.3051451 35.22631836 29.82788086 C35.26281383 33.45953824 35.2797526 37.09084858 35.29296875 40.72265625 C35.30845261 41.84583755 35.32393646 42.96901886 35.33988953 44.12623596 C35.34147661 51.55458446 34.52993366 57.33758292 29.75 63.3125 C26.01986119 66.95786293 22.94501856 68.01012034 17.7265625 67.9921875 C13.19315067 67.64578062 9.43541363 67.14912916 6 64 C1.0459081 56.55144799 0.2312206 49.78106665 0.1875 41 C0.16308838 39.79698242 0.13867676 38.59396484 0.11352539 37.35449219 C0.04616253 33.5693407 0.01742773 29.78569091 0 26 C-0.01256836 24.10217773 -0.01256836 24.10217773 -0.02539062 22.16601562 C-0.06744558 14.7758134 -0.04106142 7.39105608 0 0 Z " fill="#cccccc" transform="translate(33,68)"/>
<path d="M0 0 C6.4347892 1.22680316 11.73141133 2.7463524 16 8 C18.76918978 18.77044373 16.51731199 31.78608216 11.125 41.3125 C8.9183711 44.10323655 6.57983124 46.5524678 4 49 C3.443125 49.598125 2.88625 50.19625 2.3125 50.8125 C1 52 1 52 -1 52 C-1.03738281 51.40832031 -1.07476562 50.81664062 -1.11328125 50.20703125 C-1.52605548 44.97290652 -1.52605548 44.97290652 -3.6875 40.25 C-4.120625 39.5075 -4.55375 38.765 -5 38 C-4.3125 35.5 -4.3125 35.5 -3 33 C-1.13188604 29.03274088 -0.70572479 25.75895483 -0.5859375 21.38671875 C-0.54726563 20.13955078 -0.50859375 18.89238281 -0.46875 17.60742188 C-0.42234375 15.66706055 -0.42234375 15.66706055 -0.375 13.6875 C-0.33632813 12.37458984 -0.29765625 11.06167969 -0.2578125 9.70898438 C-0.16366883 6.47279563 -0.07803648 3.23661065 0 0 Z " fill="#CCCCCC" transform="translate(478,94)"/>
<path d="M0 0 C1.39919678 0.47010498 1.39919678 0.47010498 2.82666016 0.94970703 C4.79795234 1.60215348 6.77922155 2.226084 8.7734375 2.8046875 C12.0690085 4.16052302 13.76413942 5.18255719 16 8 C18.4792713 18.39095579 16.76918584 31.12874085 11.67578125 40.4140625 C8.71879752 45.17938536 5.58541958 48.76936348 1 52 C0.34 52 -0.32 52 -1 52 C-1.18175781 50.89591797 -1.18175781 50.89591797 -1.3671875 49.76953125 C-1.53476562 48.79371094 -1.70234375 47.81789063 -1.875 46.8125 C-2.03742188 45.84957031 -2.19984375 44.88664062 -2.3671875 43.89453125 C-2.86881125 40.97756628 -2.86881125 40.97756628 -4.3203125 38.51171875 C-4.65675781 37.26841797 -4.65675781 37.26841797 -5 36 C-4.36658691 35.10563232 -3.73317383 34.21126465 -3.08056641 33.28979492 C-0.66669019 29.47297 -0.46709224 27.32489601 -0.390625 22.8515625 C-0.37408875 22.19417084 -0.35755249 21.53677917 -0.34051514 20.85946655 C-0.29233397 18.78121324 -0.27073386 16.70368974 -0.25 14.625 C-0.22181484 13.20699512 -0.19188387 11.78902379 -0.16015625 10.37109375 C-0.08658708 6.91421959 -0.03682902 3.45748327 0 0 Z " fill="#CCCCCC" transform="translate(478,220)"/>
<path d="M0 0 C0.01401855 1.20946289 0.01401855 1.20946289 0.02832031 2.44335938 C0.0823104 6.12950585 0.16590448 9.81442241 0.25 13.5 C0.26417969 14.7684375 0.27835938 16.036875 0.29296875 17.34375 C0.48613967 24.76151315 1.26633737 29.601617 5 36 C4.3125 38.875 4.3125 38.875 3 41 C1.85185003 43.29629994 1.69230191 45.07698086 1.4375 47.625 C1.31181641 48.85089844 1.31181641 48.85089844 1.18359375 50.1015625 C1.12300781 50.72804687 1.06242187 51.35453125 1 52 C-5.85898921 48.79527142 -10.95249395 42.64971494 -13.98046875 35.7734375 C-16.69768658 27.53248576 -18.36805037 16.51095454 -16 8 C-12.82096552 4.35346045 -9.4948722 2.66026811 -5 1 C-3 0 -3 0 0 0 Z " fill="#CCCCCC" transform="translate(34,94)"/>
<path d="M0 0 C0.01401855 1.31605225 0.01401855 1.31605225 0.02832031 2.65869141 C0.07251603 5.93567422 0.13420652 9.21138143 0.20751953 12.48779297 C0.23562392 13.90173448 0.25689067 15.31583002 0.27099609 16.72998047 C0.29257456 18.77130384 0.33929086 20.81079599 0.390625 22.8515625 C0.41157227 24.07697754 0.43251953 25.30239258 0.45410156 26.56494141 C1.09108771 30.57316816 2.68122964 32.72593872 5 36 C4.3203125 38.51171875 4.3203125 38.51171875 3 41 C2.57851125 42.92792077 2.20323562 44.8665317 1.875 46.8125 C1.70742188 47.78832031 1.53984375 48.76414062 1.3671875 49.76953125 C1.24601562 50.50558594 1.12484375 51.24164063 1 52 C-5.4548006 49.78566017 -9.24690773 45.46933274 -12.30078125 39.42578125 C-16.21962832 29.89229511 -18.34432584 18.22581842 -16 8 C-13.14351628 4.57221954 -10.17602744 3.36037258 -6 2 C-5.27296875 1.63003906 -4.5459375 1.26007813 -3.796875 0.87890625 C-2 0 -2 0 0 0 Z " fill="#CCCCCC" transform="translate(34,220)"/>
<path d="M0 0 C0.01401855 1.26275757 0.01401855 1.26275757 0.02832031 2.55102539 C0.07258364 5.70305185 0.13430836 8.8541384 0.20751953 12.00561523 C0.23557843 13.36421422 0.25686744 14.72297186 0.27099609 16.08178711 C0.35715573 23.9022102 0.47809488 29.52167879 5 36 C4.375 38.8125 4.375 38.8125 3 42 C2.59212138 43.78446896 2.21890115 45.577105 1.875 47.375 C1.70742188 48.24898438 1.53984375 49.12296875 1.3671875 50.0234375 C1.24601562 50.67570312 1.12484375 51.32796875 1 52 C-4.55253429 50.65393108 -7.89345361 46.55209818 -11 42 C-15.12509495 34.95393739 -15.76006656 28.37294934 -15.8125 20.3125 C-15.86986328 19.21099609 -15.92722656 18.10949219 -15.98632812 16.97460938 C-16.06681258 9.12974178 -16.06681258 9.12974178 -13.07958984 5.96630859 C-10.77509556 4.40681595 -8.52450759 3.1642827 -6 2 C-5.28432861 1.62141846 -4.56865723 1.24283691 -3.83129883 0.8527832 C-2 0 -2 0 0 0 Z " fill="#CCCCCC" transform="translate(444,220)"/>
<path d="M0 0 C5.67408238 1.79246388 10.90076156 3.51436678 15 8 C16.23459729 12.12135407 16.08065822 15.98133803 15.875 20.25 C15.87693359 21.87228516 15.87693359 21.87228516 15.87890625 23.52734375 C15.64968377 33.52868264 12.20092643 41.27359137 5.4921875 48.66015625 C3.51652511 50.43411489 1.55464173 51.32377131 -1 52 C-1.12117188 51.34773438 -1.24234375 50.69546875 -1.3671875 50.0234375 C-1.53476563 49.14945312 -1.70234375 48.27546875 -1.875 47.375 C-2.0503125 46.45847656 -2.225625 45.54195313 -2.40625 44.59765625 C-2.95301254 41.84376072 -2.95301254 41.84376072 -4.375 38.8125 C-4.58125 37.884375 -4.7875 36.95625 -5 36 C-4.05253906 34.64261719 -4.05253906 34.64261719 -3.0859375 33.2578125 C0.40336694 27.48296063 -0.31799884 20.60224889 -0.25 14.0625 C-0.22180329 12.69722833 -0.19187074 11.33199135 -0.16015625 9.96679688 C-0.08971827 6.64447206 -0.03688863 3.32283864 0 0 Z " fill="#CCCCCC" transform="translate(68,220)"/>
<path d="M0 0 C11.51520704 3.37779406 11.51520704 3.37779406 15 7 C15.84955778 11.07771912 15.74456438 15.0386161 15.625 19.1875 C15.63144531 20.28642578 15.63789062 21.38535156 15.64453125 22.51757812 C15.52637466 31.52433284 13.67749112 38.76019112 7.375 45.4375 C6.78460938 46.07558594 6.19421875 46.71367187 5.5859375 47.37109375 C4.39962041 48.58955244 3.20249528 49.79750472 2 51 C1.01 51 0.02 51 -1 51 C-1.12117188 50.33613281 -1.24234375 49.67226562 -1.3671875 48.98828125 C-2.37847739 43.44774917 -2.37847739 43.44774917 -4.3125 38.1875 C-5 36 -5 36 -3.6875 33.4375 C-3.130625 32.633125 -2.57375 31.82875 -2 31 C-0.86802027 27.60075784 -0.80125748 24.26665503 -0.68359375 20.703125 C-0.64169922 19.49785156 -0.59980469 18.29257813 -0.55664062 17.05078125 C-0.51732422 15.79652344 -0.47800781 14.54226562 -0.4375 13.25 C-0.37272461 11.34541016 -0.37272461 11.34541016 -0.30664062 9.40234375 C-0.20060278 6.26833635 -0.09853942 3.13425067 0 0 Z " fill="#CCCCCC" transform="translate(68,94)"/>
<path d="M0 0 C0.01401855 1.26275757 0.01401855 1.26275757 0.02832031 2.55102539 C0.07258364 5.70305185 0.13430836 8.8541384 0.20751953 12.00561523 C0.23557843 13.36421422 0.25686744 14.72297186 0.27099609 16.08178711 C0.08713227 25.00104428 0.08713227 25.00104428 3.171875 33.12109375 C3.77515625 34.07113281 4.3784375 35.02117187 5 36 C4.3203125 38.57421875 4.3203125 38.57421875 3 41 C2.57851125 42.92792077 2.20323562 44.8665317 1.875 46.8125 C1.70742188 47.78832031 1.53984375 48.76414063 1.3671875 49.76953125 C1.24601562 50.50558594 1.12484375 51.24164063 1 52 C-5.08463338 49.28531741 -10.14737418 44.00552804 -13 38 C-15.14222822 31.94101123 -15.39916893 26.27202902 -15.4375 19.875 C-15.47037109 18.89917969 -15.50324219 17.92335938 -15.53710938 16.91796875 C-15.5905846 9.79117971 -15.5905846 9.79117971 -12.734375 5.96484375 C-10.45348206 4.32585925 -8.34857077 2.87950231 -5.8125 1.6875 C-5.13832031 1.36136719 -4.46414063 1.03523438 -3.76953125 0.69921875 C-2 0 -2 0 0 0 Z " fill="#CCCCCC" transform="translate(444,94)"/>
<path d="M0 0 C3.69597293 3.15697687 7.37019465 6.32970461 11 9.5625 C12.32920638 10.71311819 13.66238331 11.85916986 15 13 C15.57621094 13.50144531 16.15242188 14.00289063 16.74609375 14.51953125 C21.2627181 18.13908933 25.26866349 18.85704149 31 19 C31.25394531 19.67546875 31.50789063 20.3509375 31.76953125 21.046875 C32.11371094 21.93890625 32.45789063 22.8309375 32.8125 23.75 C33.14894531 24.63171875 33.48539063 25.5134375 33.83203125 26.421875 C34.96846822 28.93039808 36.26542927 30.87279005 38 33 C32.3648317 36.00542309 26.30242039 35.77567399 20.22265625 34.34765625 C14.35227473 32.42928473 9.76219795 29.79194109 5.08984375 25.76171875 C3.06861372 23.95950539 3.06861372 23.95950539 0.81640625 22.70703125 C-1.45633038 21.26718836 -2.68315138 20.36203967 -4 18 C-4.10201018 11.75551997 -3.14274632 5.46919489 0 0 Z " fill="#CCCCCC" transform="translate(72,347)"/>
<path d="M0 0 C2.75366906 2.75366906 2.85564276 5.2076128 3.625 9 C4.01558594 10.8871875 4.01558594 10.8871875 4.4140625 12.8125 C5 16 5 16 5 18 C2.52970023 20.54913913 -0.26313236 22.74361514 -3 25 C-3.63550781 25.54527344 -4.27101563 26.09054687 -4.92578125 26.65234375 C-12.22562027 32.59196432 -20.37684848 35.66473239 -29.828125 35.2734375 C-32.45871255 34.94224842 -34.65990365 34.24805138 -37 33 C-36.66226562 32.49210937 -36.32453125 31.98421875 -35.9765625 31.4609375 C-33.34589186 27.40088512 -31.29585335 23.712194 -30 19 C-29.32195312 18.96003906 -28.64390625 18.92007812 -27.9453125 18.87890625 C-19.17154913 17.89459208 -15.05335983 14.12126611 -9 8 C-7.30269477 6.46686864 -5.59496962 4.94516087 -3.875 3.4375 C-3.12992187 2.77621094 -2.38484375 2.11492187 -1.6171875 1.43359375 C-1.08351563 0.96050781 -0.54984375 0.48742187 0 0 Z " fill="#CCCCCC" transform="translate(439,347)"/>
<path d="M0 0 C0.93328125 -0.06251953 1.8665625 -0.12503906 2.828125 -0.18945312 C9.57962811 -0.34724321 9.57962811 -0.34724321 12.55566406 2.24267578 C14.11931492 4.28909316 15.41112562 6.29282142 16.625 8.5625 C17.00575684 9.24755615 17.38651367 9.9326123 17.77880859 10.63842773 C18.625 12.5625 18.625 12.5625 18.625 15.5625 C17.84898437 15.56660889 17.07296875 15.57071777 16.2734375 15.57495117 C12.72320876 15.60804922 9.17465906 15.67871436 5.625 15.75 C3.79388672 15.75870117 3.79388672 15.75870117 1.92578125 15.76757812 C-4.78984029 15.93093108 -9.50873755 16.32131635 -14.88525391 20.54614258 C-15.37687012 20.88154053 -15.86848633 21.21693848 -16.375 21.5625 C-18.75 21.0625 -18.75 21.0625 -21.375 19.5625 C-23.136368 18.99080405 -24.90844086 18.45150587 -26.6875 17.9375 C-27.57050781 17.67710937 -28.45351563 17.41671875 -29.36328125 17.1484375 C-30.02714844 16.95507812 -30.69101562 16.76171875 -31.375 16.5625 C-29.79741719 10.60274273 -25.40090006 7.34310413 -20.27734375 4.328125 C-13.50842342 0.83612124 -7.56028431 0.22266591 0 0 Z " fill="#CCCCCC" transform="translate(299.375,360.4375)"/>
<path d="M0 0 C10.59526151 0.14579397 18.29966181 3.06697003 26.14770508 10.31689453 C29.14770508 13.90873127 29.14770508 13.90873127 29.14770508 16.31689453 C28.48383789 16.51025391 27.8199707 16.70361328 27.13598633 16.90283203 C26.25297852 17.16322266 25.3699707 17.42361328 24.46020508 17.69189453 C23.54368164 17.95873047 22.6271582 18.22556641 21.68286133 18.50048828 C19.04881788 19.2697886 19.04881788 19.2697886 16.39770508 20.75439453 C14.14770508 21.31689453 14.14770508 21.31689453 11.02270508 19.50439453 C10.07395508 18.78251953 9.12520508 18.06064453 8.14770508 17.31689453 C4.97260526 16.25852792 2.50488125 16.11445664 -0.83276367 16.00048828 C-1.99614258 15.95859375 -3.15952148 15.91669922 -4.3581543 15.87353516 C-6.18056641 15.81456055 -6.18056641 15.81456055 -8.03979492 15.75439453 C-9.26633789 15.71121094 -10.49288086 15.66802734 -11.7565918 15.62353516 C-14.78837873 15.51736363 -17.82024807 15.41531501 -20.85229492 15.31689453 C-20.15629233 11.36904962 -19.15772332 8.86986407 -16.85229492 5.56689453 C-16.31604492 4.78830078 -15.77979492 4.00970703 -15.22729492 3.20751953 C-11.74839981 -1.57596125 -5.52133512 0.00832432 0 0 Z " fill="#CCCCCC" transform="translate(214.852294921875,360.68310546875)"/>
<path d="M0 0 C0.515625 0.268125 1.03125 0.53625 1.5625 0.8125 C2.366875 1.204375 3.17125 1.59625 4 2 C4.928125 2.5053125 5.85625 3.010625 6.8125 3.53125 C12.39578625 5.91243236 18.46419452 5.57344343 24.4375 5.6875 C25.64599609 5.72166016 26.85449219 5.75582031 28.09960938 5.79101562 C31.06631349 5.87309835 34.03273676 5.94238015 37 6 C35.77145176 11.89703154 33.71937902 17.03557574 29 21 C25.57853284 22.07871461 22.43401082 22.00192047 18.875 21.8125 C17.94228271 21.78567139 17.00956543 21.75884277 16.04858398 21.73120117 C5.87094185 21.23341536 -2.71812122 18.28187878 -10 11 C-13 7.5 -13 7.5 -13 5 C-12.31292969 4.80664062 -11.62585938 4.61328125 -10.91796875 4.4140625 C-10.01691406 4.15367187 -9.11585938 3.89328125 -8.1875 3.625 C-7.29417969 3.36976563 -6.40085937 3.11453125 -5.48046875 2.8515625 C-2.79532104 2.04733339 -2.79532104 2.04733339 0 0 Z " fill="#CCCCCC" transform="translate(281,405)"/>
<path d="M0 0 C0.928125 0.4021875 0.928125 0.4021875 1.875 0.8125 C6.17994393 2.4483787 10.58031552 3.71271326 15 5 C11.48386508 12.49158477 4.83377801 16.91484086 -2.58984375 20.1171875 C-7.2926398 21.33463527 -11.78543083 21.4074198 -16.625 21.4375 C-17.56601563 21.47037109 -18.50703125 21.50324219 -19.4765625 21.53710938 C-26.34607053 21.59077741 -26.34607053 21.59077741 -29.5078125 18.734375 C-30.24644531 17.38085938 -30.24644531 17.38085938 -31 16 C-31.41765625 15.28457031 -31.8353125 14.56914062 -32.265625 13.83203125 C-32.75289062 12.83236328 -32.75289062 12.83236328 -33.25 11.8125 C-33.75273437 10.80123047 -33.75273437 10.80123047 -34.265625 9.76953125 C-35 8 -35 8 -35 6 C-34.25427734 5.9906543 -33.50855469 5.98130859 -32.74023438 5.97167969 C-29.3261785 5.9176397 -25.91344345 5.83405696 -22.5 5.75 C-20.74042969 5.72873047 -20.74042969 5.72873047 -18.9453125 5.70703125 C-12.01340399 5.51231472 -5.22743875 5.22743875 0 0 Z " fill="#CCCCCC" transform="translate(229,405)"/>
<path d="M0 0 C2.39255122 1.82906337 4.46478107 3.90684637 6.5625 6.0625 C7.12646484 6.61099609 7.69042969 7.15949219 8.27148438 7.72460938 C13.66728045 13.17089244 17.88341408 19.73295525 18.09765625 27.57421875 C18.09103244 28.94534658 18.07914198 30.31645717 18.0625 31.6875 C18.05798828 32.38939453 18.05347656 33.09128906 18.04882812 33.81445312 C18.03706927 35.54300538 18.01913454 37.27151365 18 39 C17.01 38.360625 16.02 37.72125 15 37.0625 C10.99717514 34.74593674 7.58078998 34.32145895 3 34 C2.93683594 33.443125 2.87367187 32.88625 2.80859375 32.3125 C1.70116985 25.41150056 -1.11789983 21.83612936 -6 17 C-6.77730469 16.19820313 -7.55460937 15.39640625 -8.35546875 14.5703125 C-12.8803008 9.93406113 -12.8803008 9.93406113 -18 6 C-17.67 5.01 -17.34 4.02 -17 3 C-14.453125 1.796875 -14.453125 1.796875 -11.25 0.75 C-10.20328125 0.39421875 -9.1565625 0.0384375 -8.078125 -0.328125 C-4.70567645 -1.06424321 -3.20448072 -1.25695135 0 0 Z " fill="#CCCCCC" transform="translate(114,317)"/>
<path d="M0 0 C2.75 0.97265625 2.75 0.97265625 5 2.0625 C5.763125 2.42472656 6.52625 2.78695313 7.3125 3.16015625 C7.869375 3.43730469 8.42625 3.71445312 9 4 C7.89513102 7.31460693 7.12376914 7.96976106 4.5 10.125 C1.26284842 12.87716317 -1.84315785 15.70962268 -4.875 18.6875 C-5.98488281 19.77611328 -5.98488281 19.77611328 -7.1171875 20.88671875 C-10.77022445 24.98691167 -11.37507964 28.58402358 -12 34 C-12.66386719 34.10957031 -13.32773437 34.21914063 -14.01171875 34.33203125 C-15.33623047 34.56986328 -15.33623047 34.56986328 -16.6875 34.8125 C-17.55761719 34.96332031 -18.42773438 35.11414063 -19.32421875 35.26953125 C-22.27231281 36.07433941 -24.45686804 37.32748979 -27 39 C-27.92452102 26.46760399 -26.3161897 18.20357426 -17.98828125 8.33203125 C-16.87801735 7.10728205 -15.75688323 5.89229745 -14.625 4.6875 C-14.09624268 4.10532715 -13.56748535 3.5231543 -13.02270508 2.92333984 C-8.73899674 -1.33501342 -5.72961784 -1.6960809 0 0 Z " fill="#CCCCCC" transform="translate(407,317)"/>
</svg>
