<?xml version="1.0" encoding="UTF-8"?>
<svg version="1.1" xmlns="http://www.w3.org/2000/svg" width="512" height="512">
<path d="M0 0 C1.00853027 0.50571533 2.01706055 1.01143066 3.05615234 1.5324707 C50.0424205 25.07386675 98.38515951 45.62472674 148 63 C148.83919983 63.29477234 149.67839966 63.58954468 150.54302979 63.89324951 C188.51961751 77.2225553 226.50043326 89.07518565 265.93798828 97.29199219 C307.40805434 105.95836277 307.40805434 105.95836277 318.1875 121.3125 C327.25279815 135.62238163 325.20001357 151.56117973 323.88305664 167.70410156 C323.68960068 170.09899456 323.50948141 172.49464372 323.33007812 174.890625 C322.71748594 182.71556637 321.8907594 190.44897595 320.5390625 198.18359375 C320.42201462 198.85500397 320.30496674 199.52641418 320.18437195 200.21817017 C317.62139647 214.04952113 312.73089082 229.25191633 301 238 C275.06709362 252.36571073 234.1614474 245.43159496 207 238 C191.34041878 233.39483143 176.23545715 225.8384068 164 215 C163.33097656 214.47277344 162.66195312 213.94554687 161.97265625 213.40234375 C148.43120775 202.4887407 141.7752377 187.81400184 136.3125 171.75 C124.69049998 136.14582559 124.69049998 136.14582559 100 109.5625 C96.18689235 107.86533648 93.1936091 107.39002049 89 108 C80.63139256 111.67044186 76.18463444 118.11357356 72 126 C75.60064979 124.56283077 76.93000867 122.93258412 78.875 119.625 C82.08450061 114.60914729 85.18193194 111.89938342 90.9375 110.0625 C96.64445356 109.94603156 101.31225256 112.62871295 105.48828125 116.41015625 C117.10859845 128.63100664 126.13267196 147.90567473 131 164 C130.67 164.66 130.34 165.32 130 166 C129.28714844 165.07058594 128.57429687 164.14117187 127.83984375 163.18359375 C115.92580074 147.53745967 115.92580074 147.53745967 99 138 C89.52978966 136.99099738 82.55085831 138.57279722 75.0703125 144.5390625 C71.6063499 147.78748965 69.04799914 151.35685283 66.4375 155.3125 C64.3587878 158.35665853 63.32478869 159.82032966 60.0625 161.625 C50.74353356 162.76609793 43.05972657 161.7056127 35.28515625 156.01171875 C8.33271684 132.54485797 2.76792888 90.69665045 0.3460083 57.0554657 C-0.81267644 38.09866077 -0.22588197 18.98057315 0 0 Z " fill="#CCCCCc" transform="translate(0,151)"/>
<path d="M0 0 C42.85637503 -0.81001181 96.2585789 0.68334319 129.08837891 32.06640625 C129.70455078 32.6078125 130.32072266 33.14921875 130.95556641 33.70703125 C140.8241863 42.71157843 147.69294996 55.40597817 149.42431641 68.6328125 C149.68732257 74.6111449 148.35128023 79.48023331 144.33837891 84.06640625 C140.7855851 85.64542572 138.77699851 85.21115027 135.08837891 84.06640625 C129.35063519 79.27916693 126.86181671 72.56667966 124.15087891 65.81640625 C116.2953577 46.87772477 116.2953577 46.87772477 100.40087891 34.81640625 C62.77806513 21.33957743 14.99756722 38.59899913 -20.53271484 51.01171875 C-21.35964844 51.29853516 -22.18658203 51.58535156 -23.03857422 51.88085938 C-24.51743313 52.39964758 -25.9919615 52.93105905 -27.46044922 53.47851562 C-35.87380474 56.45736668 -41.89441974 52.98217202 -49.53662109 49.44140625 C-50.5134082 48.99498779 -51.49019531 48.54856934 -52.49658203 48.08862305 C-58.87937934 45.13002998 -64.93581423 41.94398203 -70.86474609 38.1484375 C-71.54021484 37.79136719 -72.21568359 37.43429688 -72.91162109 37.06640625 C-73.90162109 37.56140625 -73.90162109 37.56140625 -74.91162109 38.06640625 C-68.72692848 42.41797064 -62.43341516 46.02601566 -55.59912109 49.25390625 C-54.59969482 49.72602539 -53.60026855 50.19814453 -52.57055664 50.68457031 C-13.94553297 68.63473936 27.37725857 81.22359963 68.41168213 92.34106445 C71.10209089 93.07012198 73.79129373 93.80351588 76.48046875 94.53710938 C112.92003547 104.44634378 149.71542588 112.93597407 186.65869141 120.74609375 C187.63249756 120.95234879 188.60630371 121.15860382 189.60961914 121.37110901 C194.09949221 122.32008017 198.59107452 123.25860522 203.08740234 124.17651367 C218.33976741 127.3281729 232.55415525 130.78930434 242.08837891 144.06640625 C255.38820221 167.69429746 241.96503252 208.73035703 235.26416016 233.12109375 C231.39976135 246.4007485 226.43530626 259.29634694 213.81884766 266.33203125 C199.44228602 272.98355904 178.99433564 278.9261877 163.08837891 278.06640625 C168.08837891 273.06640625 168.08837891 273.06640625 170.52587891 270.81640625 C185.5099651 254.7359235 187.97129038 231.99105055 189.77587891 211.00390625 C189.86918991 209.94147202 189.86918991 209.94147202 189.96438599 208.85757446 C193.364339 180.31831139 193.364339 180.31831139 183.90087891 154.25390625 C174.94082845 143.75947083 163.28918668 138.42959867 150.26416016 134.6171875 C149.52853348 134.40168747 148.7929068 134.18618744 148.0349884 133.9641571 C140.64335022 131.85430991 133.16809499 130.32203478 125.62939453 128.8444519 C42.92731536 112.48526858 -38.23900531 79.83319053 -114.03662109 43.44140625 C-115.22231689 42.87333252 -116.4080127 42.30525879 -117.62963867 41.7199707 C-123.62913252 38.8025852 -129.33677244 35.73299375 -134.91162109 32.06640625 C-133.53485839 26.3872601 -129.50199884 23.29323477 -124.91162109 20.06640625 C-109.93997143 11.46436404 -92.68358819 9.31434999 -75.84912109 7.00390625 C-74.93797546 6.87633942 -74.02682983 6.74877258 -73.08807373 6.61734009 C-48.83434738 3.22604793 -24.4996293 0.55877068 0 0 Z " fill="#CCCCCc" transform="translate(135.91162109375,115.93359375)"/>
<path d="M0 0 C3.00701635 2.95604997 3.3986158 5.53107293 3.46826172 9.68481445 C3.45811035 10.40757568 3.44795898 11.13033691 3.4375 11.875 C3.42614014 13.0045813 3.42614014 13.0045813 3.41455078 14.15698242 C3.0052175 28.326786 -2.46723595 43.1571311 -12.265625 53.5625 C-14.8158913 55.67623423 -16.71250911 56.22414711 -20 56 C-22.98671361 54.07996982 -24.01548117 51.33221758 -25 48 C-26.1985642 41.34131 -23.12871337 37.46355959 -19.53125 32.16015625 C-18.77328125 31.09087891 -18.77328125 31.09087891 -18 30 C-21.31890521 31.10630174 -21.69041848 31.59340863 -23.56640625 34.359375 C-24.28679077 35.40496582 -24.28679077 35.40496582 -25.02172852 36.47167969 C-25.7844104 37.59944824 -25.7844104 37.59944824 -26.5625 38.75 C-27.6437884 40.31391584 -28.72714587 41.87640302 -29.8125 43.4375 C-30.35132813 44.21351563 -30.89015625 44.98953125 -31.4453125 45.7890625 C-40.72948525 58.99218254 -51.29682742 71.23859487 -62.2734375 83.05078125 C-64.05359677 84.9665657 -65.80067582 86.90045234 -67.5390625 88.85546875 C-89.35841807 113.2786447 -115.19935976 133.38378557 -142 152 C-143 149 -143 149 -142.21484375 147.109375 C-141.79332031 146.33078125 -141.37179687 145.5521875 -140.9375 144.75 C-133.76822391 129.46344437 -131.3063223 112.10291946 -128.1875 95.625 C-128.03452454 94.81822815 -127.88154907 94.0114563 -127.72393799 93.18023682 C-121.96774073 63.26454367 -121.96774073 63.26454367 -131.37109375 35.12890625 C-133.60247118 32.21259762 -136.08825185 30.21847478 -139 28 C-139 27.34 -139 26.68 -139 26 C-137.37263916 25.77449463 -137.37263916 25.77449463 -135.71240234 25.54443359 C-98.26802292 20.32888196 -61.5700515 14.04367616 -25.73681641 1.57666016 C-17.57317113 -1.25123223 -8.13290374 -4.51827986 0 0 Z " fill="#CCCCCc" transform="translate(509,220)"/>
</svg>
